<svg width="82" height="44" viewBox="0 0 82 44" fill="none" xmlns="http://www.w3.org/2000/svg">
<path d="M45.75 27H82V44H37L45.75 27Z" fill="#3DEEFA"/>
<path d="M22.0254 12.1699H14.3438V33H8.17383V12.1699H0.632812V7.40622H22.0254V12.1699ZM32.1328 33C31.9219 32.6133 31.7344 32.0449 31.5703 31.2949C30.4805 32.666 28.957 33.3515 27 33.3515C25.207 33.3515 23.6836 32.8125 22.4297 31.7343C21.1758 30.6445 20.5488 29.2793 20.5488 27.6386C20.5488 25.5761 21.3105 24.0175 22.834 22.9629C24.3574 21.9082 26.5723 21.3808 29.4785 21.3808H31.3066V20.3789C31.3066 18.6328 30.5508 17.7597 29.0391 17.7597C27.6328 17.7597 26.9297 18.4511 26.9297 19.834H21.0059C21.0059 17.9941 21.7852 16.5 23.3438 15.3515C24.9141 14.2031 26.9121 13.6289 29.3379 13.6289C31.7637 13.6289 33.6797 14.2207 35.0859 15.4043C36.4922 16.5879 37.2129 18.2109 37.248 20.2734V28.6933C37.2715 30.4394 37.541 31.7754 38.0566 32.7011V33H32.1328ZM28.4238 29.1328C29.1621 29.1328 29.7715 28.9746 30.252 28.6582C30.7441 28.3418 31.0957 27.9843 31.3066 27.5859V24.5449H29.584C27.5215 24.5449 26.4902 25.4707 26.4902 27.3222C26.4902 27.8613 26.6719 28.3008 27.0352 28.6406C27.3984 28.9687 27.8613 29.1328 28.4238 29.1328ZM48.5859 28.7812C49.418 28.7812 50.0625 28.5586 50.5195 28.1133C50.9766 27.6562 51.1992 27.0234 51.1875 26.2148H56.7422C56.7422 28.3008 55.9922 30.0117 54.4922 31.3476C53.0039 32.6836 51.082 33.3515 48.7266 33.3515C45.9609 33.3515 43.7812 32.4843 42.1875 30.75C40.5938 29.0156 39.7969 26.6133 39.7969 23.5429V23.2968C39.7969 21.375 40.1484 19.6816 40.8516 18.2168C41.5664 16.7402 42.5918 15.6093 43.9277 14.8242C45.2637 14.0273 46.8457 13.6289 48.6738 13.6289C51.1465 13.6289 53.1094 14.3144 54.5625 15.6855C56.0156 17.0566 56.7422 18.914 56.7422 21.2578H51.1875C51.1875 20.2734 50.9473 19.5175 50.4668 18.9902C49.9863 18.4629 49.3418 18.1992 48.5332 18.1992C46.998 18.1992 46.1016 19.1777 45.8438 21.1347C45.7617 21.7558 45.7207 22.6113 45.7207 23.7011C45.7207 25.6113 45.9492 26.9355 46.4062 27.6738C46.8633 28.4121 47.5898 28.7812 48.5859 28.7812ZM65.0391 16.0195C66.3047 14.4258 67.9219 13.6289 69.8906 13.6289C71.9883 13.6289 73.5703 14.25 74.6367 15.4922C75.7031 16.7343 76.248 18.5683 76.2715 20.9941V33H70.3301V21.1347C70.3301 20.1269 70.125 19.3886 69.7148 18.9199C69.3047 18.4394 68.6074 18.1992 67.623 18.1992C66.4043 18.1992 65.543 18.5859 65.0391 19.3593V33H59.1152V5.99997H65.0391V16.0195Z" fill="black"/>
</svg>
